FILE "Bulk Slash (Japan) (En) (v1.001).bin" BINARY
  TRACK 01 MODE1/2352
    INDEX 01 00:00:00
  TRACK 02 AUDIO
    INDEX 00 14:59:66
    INDEX 01 15:01:66
  TRACK 03 AUDIO
    INDEX 00 15:30:27
    INDEX 01 15:32:27
